<svg width="22" height="22" viewBox="0 0 24 24" fill="none" xmlns="http://www.w3.org/2000/svg">
	<path d="M12 2C6.477 2 2 6.477 2 12c0 5.523 4.477 10 10 10s10-4.477 10-10c0-5.523-4.477-10-10-10zm5.288 16.1l-5.485-3.505L6.32 18.188c-.238.135-.534.097-.747-.083a.855.855 0 0 1-.215-.747l1.076-6.305-4.596-4.476c-.222-.216-.292-.534-.188-.815.104-.28.362-.48.671-.48h6.756l2.656-6.35c.162-.38.705-.38.867 0l2.656 6.35h6.756c.308 0 .568.2.671.48.104.28.033.599-.188.815l-4.596 4.476 1.076 6.305c.067.39-.167.768-.55.946-.097.054-.203.079-.308.079z" fill="#FFD700" />
</svg>
