<svg width="60px" height="60px" viewBox="0 0 48 48" version="1.1" xmlns:xlink="http://www.w3.org/1999/xlink" xmlns="http://www.w3.org/2000/svg">
	<defs>
		<path d="M48 0L48 0L48 48L0 48L0 0L48 0Z" id="path_1" />
		<clipPath id="clip_1">
			<use xlink:href="#path_1" clip-rule="evenodd" fill-rule="evenodd" />
		</clipPath>
	</defs>
	<g id="Linkedin">
		<path d="M48 0L48 0L48 48L0 48L0 0L48 0Z" id="Linkedin" fill="none" stroke="none" />
		<path d="M42 37C42 39.762 39.762 42 37 42L11 42C8.239 42 6 39.762 6 37L6 11C6 8.238 8.239 6 11 6L37 6C39.762 6 42 8.238 42 11L42 37L42 37Z" id="Shape" fill="#0078D4" stroke="none" clip-path="url(#clip_1)" />
		<path d="M30 37L30 26.901C30 25.212 29.181 24.203 27.808 24.203C26.993 24.203 26.394 24.662 26.029 25.567C26.012 25.631 25.988 25.892 25.998 26.681L26 37L19 37L19 18L26 18L26 19.061C27.022 18.356 28.275 18 29.738 18C34.285 18 36.999 21.093 36.999 26.274L37 37L30 37L30 37ZM11 37L11 18L14.457 18C12.454 18 11 16.528 11 14.499C11 12.472 12.478 11 14.514 11C16.526 11 17.959 12.431 18 14.479C18 16.523 16.521 18 14.485 18L18 18L18 37L11 37L11 37Z" id="Shape" fill="#000000" fill-opacity="0.05" fill-rule="evenodd" stroke="none" clip-path="url(#clip_1)" />
		<path d="M30.5 36.5L30.5 26.901C30.5 24.928 29.469 23.703 27.808 23.703C26.513 23.703 25.873 24.615 25.565 25.38C25.483 25.579 25.494 26.369 25.498 26.706L25.5 36.5L19.5 36.5L19.5 18.5L25.5 18.5L25.5 20.138C26.295 19.315 27.575 18.5 29.738 18.5C33.971 18.5 36.499 21.406 36.499 26.274L36.5 36.5L30.5 36.5L30.5 36.5ZM11.5 36.5L11.5 18.5L17.5 18.5L17.5 36.5L11.5 36.5L11.5 36.5ZM14.457 17.5C12.744 17.5 11.5 16.238 11.5 14.499C11.5 12.761 12.768 11.5 14.514 11.5C16.238 11.5 17.465 12.729 17.5 14.489C17.5 16.238 16.232 17.5 14.485 17.5L14.457 17.5L14.457 17.5Z" id="Shape" fill="#000000" fill-opacity="0.07" fill-rule="evenodd" stroke="none" clip-path="url(#clip_1)" />
		<path d="M12 19L17 19L17 36L12 36L12 19L12 19ZM14.485 17L14.457 17C12.965 17 12 15.888 12 14.499C12 13.08 12.995 12 14.514 12C16.035 12 16.972 13.08 17 14.499C17 15.887 16.035 17 14.485 17L14.485 17ZM36 36L31 36L31 26.901C31 24.703 29.775 23.203 27.808 23.203C26.307 23.203 25.495 24.215 25.101 25.193C24.957 25.543 25 26.511 25 27L25 36L20 36L20 19L25 19L25 21.616C25.721 20.5 26.85 19 29.738 19C33.316 19 35.999 21.25 35.999 26.274L36 36L36 36L36 36Z" id="Shape" fill="#FFFFFF" fill-rule="evenodd" stroke="none" clip-path="url(#clip_1)" />
	</g>
</svg>
