<?xml version="1.0" encoding="utf-8"?>
<svg width="44.05696px" height="34.000427px" viewBox="0 0 44.05696 34.000427" version="1.1" xmlns:xlink="http://www.w3.org/1999/xlink" xmlns="http://www.w3.org/2000/svg">
  <path d="M1.15106 0.000183105C0.741776 -0.0100098 0.361084 0.368958 0.154755 0.991943C-0.05159 1.61493 -0.05159 2.38544 0.154755 3.00848C0.361084 3.63147 0.741776 4.01038 1.15106 4.00018L23.8489 4.00018C24.2582 4.01038 24.6389 3.63147 24.8453 3.00842C25.0516 2.38544 25.0516 1.61493 24.8452 0.991943C24.6389 0.368958 24.2582 -0.0100098 23.8489 0.000183105L1.15106 0.000183105L1.15106 0.000183105ZM2.02849 15.0002C1.30721 14.99 0.636322 15.369 0.272705 15.9919C-0.0908966 16.6149 -0.0908966 17.3854 0.272705 18.0085C0.636322 18.6315 1.30722 19.0104 2.02849 19.0002L42.0285 19.0002C42.7498 19.0104 43.4207 18.6315 43.7843 18.0084C44.1479 17.3854 44.1479 16.6149 43.7843 15.9919C43.4206 15.369 42.7498 14.99 42.0285 15.0002L2.02849 15.0002L2.02849 15.0002ZM2.02849 30.0002C1.30721 29.99 0.636322 30.369 0.272705 30.9919C-0.0908966 31.6149 -0.0908966 32.3855 0.272705 33.0085C0.636322 33.6315 1.30722 34.0104 2.02849 34.0002L42.0285 34.0002C42.7498 34.0104 43.4207 33.6315 43.7843 33.0084C44.1479 32.3854 44.1479 31.6149 43.7843 30.9919C43.4206 30.369 42.7498 29.99 42.0285 30.0002L2.02849 30.0002L2.02849 30.0002Z" id="Shape" fill="#F2F2F2" fill-rule="evenodd" stroke="none" />
</svg>